<?xml version="1.0" encoding="UTF-8" standalone="no"?><!-- Generator: Gravit.io -->
<svg xmlns="http://www.w3.org/2000/svg" 
  xmlns:xlink="http://www.w3.org/1999/xlink" style="isolation:isolate" viewBox="0 0 1000 1000" width="400pt" height="400pt">
  <defs>
    <clipPath id="_clipPath_XyjFx9FggwkgdcHiBGxqy6usqjC5TDuI">
      <rect width="1000" height="1000"/>
    </clipPath>
  </defs>
  <g clip-path="url(#_clipPath_XyjFx9FggwkgdcHiBGxqy6usqjC5TDuI)">
    <g style="isolation:isolate">
      <path d=" M 292.804 106 L 292.804 660 L 331.861 617.896 L 331.861 146.996 L 663.984 146.996 L 707.196 106 L 292.804 106 Z " fill="rgb(59,158,63)"/>
      <path d=" M 344.88 617.896 L 392.247 660 L 392.247 387.432 L 663.984 387.432 L 608.584 342.558 L 344.88 342.558 L 344.88 617.896 Z " fill="rgb(59,158,63)"/>
      <path d=" M 344.88 327.6 L 344.88 158.63 L 663.984 158.63 L 707.196 201.842 L 392.247 201.842 L 392.247 282.726 L 663.984 282.726 L 608.584 327.6 L 344.88 327.6 Z " fill="rgb(59,158,63)"/>
    </g>
    <g style="isolation:isolate">
      <mask id="_mask_JMnnulrG1M3TngKONlpkqDD9LbBEZcpU" x="-200%" y="-200%" width="400%" height="400%">
        <rect x="-200%" y="-200%" width="400%" height="400%" style="fill:white;"/>
        <circle vector-effect="non-scaling-stroke" cx="897.3407960199007" cy="898.2162435168547" r="81.6951668826323" fill="black" stroke-width="1" stroke="none" stroke-linejoin="miter" stroke-linecap="square" stroke-miterlimit="3"/>
      </mask>
      <g style="isolation:isolate" mask="url(#_mask_JMnnulrG1M3TngKONlpkqDD9LbBEZcpU)">
        <circle vector-effect="non-scaling-stroke" cx="897.3407960199007" cy="898.2162435168548" r="101.49999999999989" fill="rgb(59,158,63)"/>
      </g>
      <path d=" M 703.795 949.469 L 649.862 949.469 L 649.862 999.716 L 619.801 999.716 L 619.801 798.457 L 690.709 798.457 L 690.709 798.457 Q 738.276 798.457 760.999 816.671 L 760.999 816.671 L 760.999 816.671 Q 783.721 834.884 783.721 871.488 L 783.721 871.488 L 783.721 871.488 Q 783.721 922.768 731.734 940.805 L 731.734 940.805 L 760.999 999.716 L 737.746 999.716 L 703.795 949.469 Z  M 649.862 824.805 L 649.862 923.652 L 691.063 923.652 L 691.063 923.652 Q 722.892 923.652 737.746 911.009 L 737.746 911.009 L 737.746 911.009 Q 752.599 898.366 752.599 873.079 L 752.599 873.079 L 752.599 873.079 Q 752.599 847.439 737.481 836.122 L 737.481 836.122 L 737.481 836.122 Q 722.362 824.805 688.941 824.805 L 688.941 824.805 L 649.862 824.805 Z " fill-rule="evenodd" fill="rgb(59,158,63)"/>
      <path d=" M 596.409 877.587 L 596.409 877.587 L 596.409 877.587 Q 596.409 919.063 568.105 941.388 L 568.105 941.388 L 568.105 941.388 Q 539.801 963.714 487.117 963.714 L 487.117 963.714 L 454.983 963.714 L 454.983 999.716 L 423.223 999.716 L 423.223 798 L 494.029 798 L 494.029 798 Q 596.409 798 596.409 877.587 Z  M 454.983 825.463 L 454.983 936.437 L 483.567 936.437 L 483.567 936.437 Q 525.79 936.437 544.659 922.799 L 544.659 922.799 L 544.659 922.799 Q 563.528 909.161 563.528 879.082 L 563.528 879.082 L 563.528 879.082 Q 563.528 851.992 545.78 838.728 L 545.78 838.728 L 545.78 838.728 Q 528.032 825.463 490.48 825.463 L 490.48 825.463 L 454.983 825.463 Z " fill-rule="evenodd" fill="rgb(59,158,63)"/>
      <path d=" M 288.615 947.233 L 288.615 947.233 L 288.615 947.233 Q 288.615 973.077 269.868 987.538 L 269.868 987.538 L 269.868 987.538 Q 251.121 1002 218.984 1002 L 218.984 1002 L 218.984 1002 Q 184.169 1002 165.422 993.028 L 165.422 993.028 L 165.422 971.068 L 165.422 971.068 Q 177.474 976.156 191.667 979.102 L 191.667 979.102 L 191.667 979.102 Q 205.861 982.048 219.787 982.048 L 219.787 982.048 L 219.787 982.048 Q 242.551 982.048 254.067 973.411 L 254.067 973.411 L 254.067 973.411 Q 265.583 964.774 265.583 949.375 L 265.583 949.375 L 265.583 949.375 Q 265.583 939.199 261.499 932.704 L 261.499 932.704 L 261.499 932.704 Q 257.415 926.21 247.841 920.72 L 247.841 920.72 L 247.841 920.72 Q 238.266 915.23 218.716 908.267 L 218.716 908.267 L 218.716 908.267 Q 191.4 898.491 179.683 885.101 L 179.683 885.101 L 179.683 885.101 Q 167.966 871.71 167.966 850.152 L 167.966 850.152 L 167.966 850.152 Q 167.966 827.522 184.972 814.131 L 184.972 814.131 L 184.972 814.131 Q 201.978 800.741 229.964 800.741 L 229.964 800.741 L 229.964 800.741 Q 259.156 800.741 283.66 811.453 L 283.66 811.453 L 276.563 831.271 L 276.563 831.271 Q 252.326 821.094 229.429 821.094 L 229.429 821.094 L 229.429 821.094 Q 211.351 821.094 201.175 828.861 L 201.175 828.861 L 201.175 828.861 Q 190.998 836.627 190.998 850.42 L 190.998 850.42 L 190.998 850.42 Q 190.998 860.596 194.747 867.091 L 194.747 867.091 L 194.747 867.091 Q 198.497 873.585 207.401 879.008 L 207.401 879.008 L 207.401 879.008 Q 216.306 884.431 234.651 890.993 L 234.651 890.993 L 234.651 890.993 Q 265.449 901.973 277.032 914.56 L 277.032 914.56 L 277.032 914.56 Q 288.615 927.147 288.615 947.233 Z " fill="rgb(59,158,63)"/>
      <path d=" M 0 799 L 124.43 799 L 124.43 822.042 L 19.952 822.042 L 19.952 898.064 L 124.43 898.064 L 124.43 917.534 L 19.952 917.534 L 19.952 932.582 L 124.43 932.582 L 124.43 952.359 L 19.952 952.359 L 19.952 999.716 L 0 999.716 L 0 799 Z " fill="rgb(59,158,63)"/>
    </g>
  </g>
</svg>